<svg width="392" height="76" viewBox="0 0 392 76" fill="none" xmlns="http://www.w3.org/2000/svg">
<path d="M6.92351 1.47363H1L35.2575 74.0862L69.5149 1.47363H63.5916L35.2575 61.4867L6.92351 1.47363Z" fill="#101828" stroke="#101828" stroke-width="0.695834"/>
<path d="M384.743 75.0481H390.666L356.409 2.46875L322.151 75.0481H328.075L356.409 15.035L384.743 75.0481Z" fill="#101828" stroke="#101828" stroke-width="0.695834"/>
<path d="M118.054 1.04199C97.6833 1.04199 81.0977 17.7528 81.0977 38.2766C81.0977 58.8006 97.6833 75.5111 118.054 75.5111C138.424 75.5111 155.009 58.8006 155.009 38.2766C155.009 17.7528 138.424 1.04199 118.054 1.04199ZM118.054 70.7368C100.283 70.7368 85.8033 56.1477 85.8033 38.2435C85.8033 20.339 100.283 5.75022 118.054 5.75022C135.824 5.75022 150.304 20.339 150.304 38.2435C150.304 56.181 135.857 70.7368 118.054 70.7368Z" fill="#101828" stroke="#101828" stroke-width="0.695834"/>
<path d="M182.95 1.04199H177.717V75.047H227.047V69.775H182.95V1.04199Z" fill="#101828" stroke="#101828" stroke-width="0.695834"/>
<path d="M271.176 75.0464H276.409V5.78261H309.843V0.510742H237.708V5.78261H271.176V75.0464Z" fill="#101828" stroke="#101828" stroke-width="0.695834"/>
</svg>
